PathFileType	4	(X/Y/Z)	/Users/mathieubourgeois/Desktop/Analyse/Traitement/Sujet_02/Transformed_Static_Sujet_02_Tpose.trc
DataRate	CameraRate	NumFrames	NumMarkers	Units	OrigDataRate	OrigDataStartFrame	OrigNumFrames
120.000000	120.000000	6	36	mm	120.000000	0	308
Frame#	Time	RFHD			RANE			STRN			LANI			LKNE			T10			RHUM			RWRB			C7			LFWT			LTOE			RTOE			LWRA			LBWT			RBWT			RFWT			LKNI			RKNI			RKNE			LANE			RANI			LHEE			RHEE			LHUM			LRAD			RRAD			RWRA			LWRB			LFHD			LBHD			RBHD			RSHO			LSHO			CLAV			LCAR			RCAR			
		X1	Y1	Z1	X2	Y2	Z2	X3	Y3	Z3	X4	Y4	Z4	X5	Y5	Z5	X6	Y6	Z6	X7	Y7	Z7	X8	Y8	Z8	X9	Y9	Z9	X10	Y10	Z10	X11	Y11	Z11	X12	Y12	Z12	X13	Y13	Z13	X14	Y14	Z14	X15	Y15	Z15	X16	Y16	Z16	X17	Y17	Z17	X18	Y18	Z18	X19	Y19	Z19	X20	Y20	Z20	X21	Y21	Z21	X22	Y22	Z22	X23	Y23	Z23	X24	Y24	Z24	X25	Y25	Z25	X26	Y26	Z26	X27	Y27	Z27	X28	Y28	Z28	X29	Y29	Z29	X30	Y30	Z30	X31	Y31	Z31	X32	Y32	Z32	X33	Y33	Z33	X34	Y34	Z34	X35	Y35	Z35	X36	Y36	Z36	

1	0	-152.5079345703126	1800.014038085938	369.0965576171874	-225.6808166503907	101.4670944213867	237.6146545410156	-43.57815551757817	1413.502075195312	424.027130126953	77.91758728027341	119.3628158569336	269.4878845214844	155.3850708007812	557.1349487304688	246.9251556396484	-39.79552459716799	1379.418334960938	173.7540740966796	-496.1479797363281	1502.25244140625	223.0146636962889	-775.5805053710938	1579.16015625	233.2061462402342	-42.23260116577151	1619.995971679688	223.6859893798827	87.95435333251947	1108.827880859375	409.3716735839843	173.0977783203124	58.72957611083987	457.3286437988281	-252.1586456298829	59.09492111206058	459.0832214355468	714.9326171875	1486.27783203125	329.2410278320312	16.63649177551267	1143.230102539062	225.3869628906249	-104.5679244995117	1146.312744140625	225.4222106933593	-188.5064239501954	1121.832275390625	400.2424011230468	61.53104400634762	516.038330078125	279.4253845214843	-132.1772766113282	526.9813232421875	289.6656188964843	-223.1668853759766	580.4743041992188	251.7789764404296	160.3604431152343	100.7641906738281	229.507797241211	-144.9170989990235	119.1133193969727	278.9231567382812	105.9121780395508	70.15159606933595	177.2041320800781	-161.2040557861328	63.76896286010744	186.216552734375	432.1780700683593	1461.597900390625	332.1817016601562	441.8346862792968	1514.132934570312	284.7389221191406	-501.4079895019532	1459.132934570312	289.6229553222655	-769.984375	1519.336669921875	205.281768798828	710.7546997070312	1552.475952148438	356.0372924804688	-4.973921298980764	1797.505859375	413.6397705078124	33.41785812377926	1744.594848632812	279.162628173828	-126.0948791503907	1743.668090820312	247.6733093261717	-209.8086547851563	1594.311645507812	254.3622894287108	126.1886672973633	1614.239379882812	289.092315673828	-31.62292861938481	1587.994750976562	379.1336059570311	819.9679565429688	1519.192993164062	317.4904174804688	-879.31005859375	1547.461059570312	183.1453704833982	
2	0.008333333333333333	-152.6379699707032	1799.968383789062	369.0740356445311	-225.6798095703125	101.4668960571289	237.6053009033203	-43.65355682373052	1413.497680664062	423.9451293945311	77.92277526855466	119.362434387207	269.4817199707031	155.3765258789062	557.1368408203125	246.8946075439453	-39.8552932739258	1379.447998046875	173.6839141845702	-496.2765197753906	1502.333618164062	223.024688720703	-775.6956787109375	1579.255126953125	233.1901855468748	-42.365104675293	1620.007080078125	223.6543884277343	87.95304870605463	1108.847900390625	409.2619323730468	173.1006622314453	58.72629165649417	457.3165588378906	-252.1583404541016	59.10271453857425	459.0849609374999	714.85498046875	1486.5234375	329.2291870117188	16.6112308502197	1143.217163085938	225.3065338134765	-104.5794296264649	1146.290283203125	225.3492431640624	-188.5002593994141	1121.8623046875	400.1788635253906	61.53275680541989	516.0310668945312	279.4106445312499	-132.1833801269532	526.96142578125	289.6643066406249	-222.8526153564453	579.8706665039062	251.3750610351562	160.3647918701172	100.7626037597656	229.5031280517578	-144.9113159179688	119.0890197753906	278.9203186035156	105.9186859130859	70.16126251220705	177.2151031494141	-161.2181243896485	63.77592849731447	186.2025299072265	432.1379089355468	1461.672607421875	332.1086120605468	441.8855895996093	1514.6318359375	282.9539489746093	-501.5217285156251	1459.216796875	289.620391845703	-770.09228515625	1519.447998046875	205.2492065429686	710.6565551757812	1552.762573242188	356.0314636230469	-5.104713916778615	1797.462890625	413.6163635253905	33.27948760986325	1744.564575195312	279.128936767578	-126.2249450683594	1743.67236328125	247.6403961181639	-209.907455444336	1594.28564453125	254.3314361572264	126.0504531860351	1614.28955078125	289.0962524414061	-31.73254394531255	1587.985229492188	379.0947265624999	819.8848266601562	1519.481689453125	317.5201110839844	-879.4082641601562	1547.584106445312	183.1195983886717	
3	0.01666666666666667	-152.7371063232422	1799.985229492188	369.0722351074218	-225.6855621337891	101.472053527832	237.6013641357422	-43.71509170532232	1413.49462890625	423.8641967773436	77.91867828369138	119.3572006225586	269.4786682128906	155.3734741210937	557.1322021484375	246.8740539550781	-39.91976547241213	1379.474243164062	173.6116790771484	-496.4106140136719	1502.434326171875	223.0138549804686	-775.7882690429688	1579.378173828125	233.2189941406248	-42.48197555541995	1620.0263671875	223.6255798339843	87.96444702148432	1108.87255859375	409.1663513183593	173.0984191894531	58.73573303222659	457.3153381347656	-252.1506805419922	59.10343933105472	459.0710144042968	714.766357421875	1486.837280273438	329.1764221191406	16.61433410644528	1143.210205078125	225.205825805664	-104.5971908569336	1146.276977539062	225.255142211914	-188.4901885986329	1121.866821289062	400.1070556640624	61.52020645141598	516.0391845703125	279.3847351074218	-132.1909942626953	526.9710693359375	289.6499328613281	-222.8529052734375	579.8431396484375	251.3577575683593	160.3707275390625	100.7405090332031	229.5069274902344	-144.9096221923828	119.1027755737305	278.9064025878906	105.9240341186523	70.15750885009767	177.2055206298828	-161.2200469970703	63.75664520263673	186.2015838623047	432.0804443359374	1461.880981445312	332.1329956054687	441.7589111328124	1514.888305664062	282.8523254394531	-501.6390075683594	1459.291381835938	289.6209716796873	-770.2023315429688	1519.568969726562	205.2188262939451	710.5537719726562	1553.045288085938	356.0352172851562	-5.240917682647756	1797.439453125	413.6042175292968	33.13521575927731	1744.574340820312	279.0719299316405	-126.4168853759766	1743.60205078125	247.5809173583983	-210.0042114257813	1594.2958984375	254.3123931884764	125.9333114624023	1614.330322265625	289.084259033203	-31.85330772399907	1587.963989257812	379.0599670410155	819.8096923828125	1519.796142578125	317.5096435546875	-879.5055541992188	1547.776245117188	183.0888366699217	
4	0.025	-152.8421173095704	1799.921508789062	369.0543212890624	-225.782958984375	101.6600646972656	237.2168273925781	-43.7932624816895	1413.50244140625	423.7850341796874	76.44594573974607	120.6512680053711	269.7745971679688	155.3707275390625	557.1365356445312	246.8495483398438	-39.96728134155276	1379.519165039062	173.5311279296874	-496.5203552246094	1502.523803710938	223.0032958984374	-775.8623046875	1579.51513671875	233.2631988525389	-42.60007095336917	1620.043090820312	223.6051788330077	87.97241973876947	1108.91845703125	409.0541076660156	173.1071166992187	58.74734497070315	457.3114624023438	-252.1609497070313	59.12136459350589	459.0640869140624	714.6812133789062	1487.140747070312	329.1554870605469	16.60237503051755	1143.882080078125	225.1030578613281	-104.6615447998047	1145.955200195312	224.7532806396484	-188.4445190429688	1121.526123046875	399.7081909179687	61.51791381835934	516.0413818359375	279.3733825683593	-132.1989898681641	526.994384765625	289.6529541015624	-222.8819580078125	579.7887573242188	251.3494110107421	160.1432037353515	101.3068389892578	229.5318298339844	-145.6532897949219	119.8201675415039	279.4197692871094	105.9217529296875	70.15068817138673	177.200927734375	-161.2112884521485	63.76589584350587	186.1929168701172	432.0025939941406	1462.121459960938	332.1541442871093	441.6856079101562	1515.1083984375	282.8798217773437	-501.7529907226563	1459.363037109375	289.6034851074217	-770.314453125	1519.726928710938	205.1871337890623	710.4637451171875	1553.304321289062	356.0418701171875	-5.403434276580861	1797.423950195312	413.5512390136718	33.0281944274902	1744.6318359375	279.0428161621093	-126.5735168457032	1743.579711914062	247.5522308349608	-210.0768432617188	1594.466064453125	254.3387756347655	125.7997131347656	1614.324462890625	289.4035034179686	-32.15573501586919	1588.522827148438	379.330596923828	819.6641235351562	1520.21435546875	317.8810424804688	-879.6122436523438	1548.053955078125	183.0676116943357	
5	0.03333333333333333	-153.0200958251954	1800.364013671875	369.180206298828	-225.8935852050782	102.0954055786133	237.7846527099609	-43.71858215332036	1413.231201171875	423.7848510742186	76.67977905273435	120.737174987793	269.7442626953125	155.5250549316406	556.3099975585938	246.5760040283203	-39.9053421020508	1379.791137695312	173.2404632568359	-496.6390075683594	1502.943237304688	222.8235931396483	-775.4906616210938	1579.1474609375	233.4999084472655	-42.35894012451175	1620.509521484375	223.3925018310546	88.04900360107416	1108.510009765625	409.0590820312499	173.8438415527343	58.25362014770511	457.3232421875	-251.4910430908204	59.07832336425784	459.2409667968749	714.67431640625	1487.64208984375	328.78662109375	16.85658836364743	1143.552490234375	224.8081054687499	-104.6305236816407	1146.303588867188	224.5554504394531	-188.0671539306641	1120.874389648438	399.6541748046874	62.00102233886715	515.819580078125	279.7174072265624	-131.3484344482422	526.1073608398438	290.1022949218749	-222.7304992675782	580.1047973632812	251.7990112304687	160.2871856689453	101.467903137207	229.5910949707032	-144.522445678711	119.4875717163086	279.2463684082031	106.3611145019531	70.18853759765626	177.4548187255859	-160.037338256836	63.70866012573244	186.1813507080078	432.3639526367187	1461.740112304688	331.9310607910156	441.6497802734374	1515.521484375	282.1861572265624	-501.2862548828126	1459.558715820312	289.6824340820311	-770.4480590820312	1520.216552734375	204.9685974121092	710.689453125	1552.758666992188	355.8246154785156	-4.363884925842336	1796.65869140625	413.5267333984374	31.92902183532711	1743.338500976562	278.893096923828	-125.9086608886719	1743.863159179688	247.6225280761717	-210.188705444336	1594.924560546875	254.5285644531249	126.4153366088867	1613.765625	289.5003356933593	-32.43793106079107	1588.403076171875	379.3963317871093	819.6713256835938	1520.6611328125	317.7293395996094	-879.8373413085938	1548.662475585938	182.7376251220701	
6	0.04166666666666666	-153.0250701904297	1799.279296875	368.8883666992186	-225.9825286865235	101.8913650512695	237.4200744628906	-43.96403503417974	1413.677368164062	423.7151489257811	76.61883544921872	120.5342559814453	269.625	155.3658752441406	557.3360595703125	246.7926788330078	-40.09723281860354	1379.772094726562	173.3620452880859	-496.7368774414062	1502.995727539062	222.7948760986327	-775.9990844726562	1580.099609375	233.4906921386717	-42.70899581909183	1620.253662109375	223.4343261718749	87.91027069091791	1109.204833984375	408.9150390624999	173.0091705322265	58.91284561157229	457.3333435058594	-252.3135681152344	59.53340911865237	459.3704528808593	714.5496826171875	1488.048706054688	328.6638488769531	16.66835212707517	1143.76513671875	224.8851165771484	-104.6531372070313	1146.290893554688	224.4466552734374	-188.6139373779297	1121.894897460938	399.9749755859374	61.59611892700192	516.9777221679688	279.3262023925781	-132.370849609375	527.3456420898438	289.8844909667968	-222.8067932128907	580.0234985351562	251.4606475830078	160.1631774902343	101.553092956543	229.6636505126953	-145.3426055908203	119.7376708984375	279.1401672363281	105.8466720581054	70.29557037353517	177.3751678466797	-161.5643157958985	64.30813598632814	186.5111236572265	431.9012756347656	1462.543090820312	332.1068420410156	441.4450988769531	1515.745239257812	282.8178405761718	-501.9211730957032	1459.722045898438	289.5755004882811	-770.527099609375	1520.406127929688	204.9989776611326	710.1140747070312	1554.03564453125	356.3126831054688	-5.076525688171437	1798.056762695312	414.4244995117186	33.04800415039059	1744.90869140625	278.820098876953	-126.3433074951172	1743.680908203125	247.0968780517577	-210.2503051757813	1594.781860351562	254.2632904052733	125.5197601318359	1614.649291992188	289.5221862792968	-32.42083358764653	1588.557373046875	379.2599182128905	819.5825805664062	1521.0341796875	317.696533203125	-879.9793701171875	1548.949462890625	182.970260620117	
